<svg width="184" height="185" viewBox="0 0 184 185" fill="none" xmlns="http://www.w3.org/2000/svg">
<style type="text/css">
@-webkit-keyframes animate-svg-fill-1 {
  0% {
    fill: transparent;
  }

  100% {
    fill: rgb(218, 82, 37);
  }
}

@keyframes animate-svg-fill-1 {
  0% {
    fill: transparent;
  }

  100% {
    fill: rgb(218, 82, 37);
  }
}

.hoop-elem-1 {
  -webkit-animation: animate-svg-fill-1 0.2s linear 0.2s both;
          animation: animate-svg-fill-1 0.2s linear 0.2s both;
}

@-webkit-keyframes animate-svg-fill-2 {
  0% {
    fill: transparent;
  }

  100% {
    fill: rgb(218, 82, 37);
  }
}

@keyframes animate-svg-fill-2 {
  0% {
    fill: transparent;
  }

  100% {
    fill: rgb(218, 82, 37);
  }
}

.hoop-elem-2 {
  -webkit-animation: animate-svg-fill-2 0.2s linear 0.30000000000000004s both;
          animation: animate-svg-fill-2 0.2s linear 0.30000000000000004s both;
}

@-webkit-keyframes animate-svg-fill-3 {
  0% {
    fill: transparent;
  }

  100% {
    fill: rgb(218, 82, 37);
  }
}

@keyframes animate-svg-fill-3 {
  0% {
    fill: transparent;
  }

  100% {
    fill: rgb(218, 82, 37);
  }
}

.hoop-elem-3 {
  -webkit-animation: animate-svg-fill-3 0.2s linear 0.4s both;
          animation: animate-svg-fill-3 0.2s linear 0.4s both;
}

@-webkit-keyframes animate-svg-fill-4 {
  0% {
    fill: transparent;
  }

  100% {
    fill: rgb(97, 0, 0);
  }
}

@keyframes animate-svg-fill-4 {
  0% {
    fill: transparent;
  }

  100% {
    fill: rgb(97, 0, 0);
  }
}

.hoop-elem-4 {
  -webkit-animation: animate-svg-fill-4 0.2s linear 0.5s both;
          animation: animate-svg-fill-4 0.2s linear 0.5s both;
}

@-webkit-keyframes animate-svg-fill-5 {
  0% {
    fill: transparent;
  }

  100% {
    fill: rgb(97, 0, 0);
  }
}

@keyframes animate-svg-fill-5 {
  0% {
    fill: transparent;
  }

  100% {
    fill: rgb(97, 0, 0);
  }
}

.hoop-elem-5 {
  -webkit-animation: animate-svg-fill-5 0.2s linear 0.6000000000000001s both;
          animation: animate-svg-fill-5 0.2s linear 0.6000000000000001s both;
}

@-webkit-keyframes animate-svg-fill-6 {
  0% {
    fill: transparent;
  }

  100% {
    fill: rgb(97, 0, 0);
  }
}

@keyframes animate-svg-fill-6 {
  0% {
    fill: transparent;
  }

  100% {
    fill: rgb(97, 0, 0);
  }
}

.hoop-elem-6 {
  -webkit-animation: animate-svg-fill-6 0.2s linear 0.7s both;
          animation: animate-svg-fill-6 0.2s linear 0.7s both;
}

@-webkit-keyframes animate-svg-fill-7 {
  0% {
    fill: transparent;
  }

  100% {
    fill: rgb(96, 94, 67);
  }
}

@keyframes animate-svg-fill-7 {
  0% {
    fill: transparent;
  }

  100% {
    fill: rgb(96, 94, 67);
  }
}

.hoop-elem-7 {
  -webkit-animation: animate-svg-fill-7 0.2s linear 0.8s both;
          animation: animate-svg-fill-7 0.2s linear 0.8s both;
}

@-webkit-keyframes animate-svg-fill-8 {
  0% {
    fill: transparent;
  }

  100% {
    fill: rgb(96, 94, 67);
  }
}

@keyframes animate-svg-fill-8 {
  0% {
    fill: transparent;
  }

  100% {
    fill: rgb(96, 94, 67);
  }
}

.hoop-elem-8 {
  -webkit-animation: animate-svg-fill-8 0.2s linear 0.9000000000000001s both;
          animation: animate-svg-fill-8 0.2s linear 0.9000000000000001s both;
}

@-webkit-keyframes animate-svg-fill-9 {
  0% {
    fill: transparent;
  }

  100% {
    fill: rgb(96, 94, 67);
  }
}

@keyframes animate-svg-fill-9 {
  0% {
    fill: transparent;
  }

  100% {
    fill: rgb(96, 94, 67);
  }
}

.hoop-elem-9 {
  -webkit-animation: animate-svg-fill-9 0.2s linear 1s both;
          animation: animate-svg-fill-9 0.2s linear 1s both;
}

@-webkit-keyframes animate-svg-fill-10 {
  0% {
    fill: transparent;
  }

  100% {
    fill: rgb(69, 109, 144);
  }
}

@keyframes animate-svg-fill-10 {
  0% {
    fill: transparent;
  }

  100% {
    fill: rgb(69, 109, 144);
  }
}

.hoop-elem-10 {
  -webkit-animation: animate-svg-fill-10 0.2s linear 1.1s both;
          animation: animate-svg-fill-10 0.2s linear 1.1s both;
}

@-webkit-keyframes animate-svg-fill-11 {
  0% {
    fill: transparent;
  }

  100% {
    fill: rgb(69, 109, 144);
  }
}

@keyframes animate-svg-fill-11 {
  0% {
    fill: transparent;
  }

  100% {
    fill: rgb(69, 109, 144);
  }
}

.hoop-elem-11 {
  -webkit-animation: animate-svg-fill-11 0.2s linear 1.2s both;
          animation: animate-svg-fill-11 0.2s linear 1.2s both;
}

@-webkit-keyframes animate-svg-fill-12 {
  0% {
    fill: transparent;
  }

  100% {
    fill: rgb(69, 109, 144);
  }
}

@keyframes animate-svg-fill-12 {
  0% {
    fill: transparent;
  }

  100% {
    fill: rgb(69, 109, 144);
  }
}

.hoop-elem-12 {
  -webkit-animation: animate-svg-fill-12 0.2s linear 1.3s both;
          animation: animate-svg-fill-12 0.2s linear 1.3s both;
}

@-webkit-keyframes animate-svg-fill-13 {
  0% {
    fill: transparent;
  }

  100% {
    fill: rgb(224, 172, 15);
  }
}

@keyframes animate-svg-fill-13 {
  0% {
    fill: transparent;
  }

  100% {
    fill: rgb(224, 172, 15);
  }
}

.hoop-elem-13 {
  -webkit-animation: animate-svg-fill-13 0.2s linear 1.4000000000000001s both;
          animation: animate-svg-fill-13 0.2s linear 1.4000000000000001s both;
}

@-webkit-keyframes animate-svg-fill-14 {
  0% {
    fill: transparent;
  }

  100% {
    fill: rgb(224, 172, 15);
  }
}

@keyframes animate-svg-fill-14 {
  0% {
    fill: transparent;
  }

  100% {
    fill: rgb(224, 172, 15);
  }
}

.hoop-elem-14 {
  -webkit-animation: animate-svg-fill-14 0.2s linear 1.5s both;
          animation: animate-svg-fill-14 0.2s linear 1.5s both;
}

@-webkit-keyframes animate-svg-fill-15 {
  0% {
    fill: transparent;
  }

  100% {
    fill: rgb(224, 172, 15);
  }
}

@keyframes animate-svg-fill-15 {
  0% {
    fill: transparent;
  }

  100% {
    fill: rgb(224, 172, 15);
  }
}

.hoop-elem-15 {
  -webkit-animation: animate-svg-fill-15 0.2s linear 1.6s both;
          animation: animate-svg-fill-15 0.2s linear 1.6s both;
}

@-webkit-keyframes animate-svg-fill-16 {
  0% {
    fill: transparent;
  }

  100% {
    fill: rgb(180, 168, 144);
  }
}

@keyframes animate-svg-fill-16 {
  0% {
    fill: transparent;
  }

  100% {
    fill: rgb(180, 168, 144);
  }
}

.hoop-elem-16 {
  -webkit-animation: animate-svg-fill-16 0.2s linear 1.7s both;
          animation: animate-svg-fill-16 0.2s linear 1.7s both;
}

@-webkit-keyframes animate-svg-fill-17 {
  0% {
    fill: transparent;
  }

  100% {
    fill: rgb(180, 168, 144);
  }
}

@keyframes animate-svg-fill-17 {
  0% {
    fill: transparent;
  }

  100% {
    fill: rgb(180, 168, 144);
  }
}

.hoop-elem-17 {
  -webkit-animation: animate-svg-fill-17 0.2s linear 1.8s both;
          animation: animate-svg-fill-17 0.2s linear 1.8s both;
}

@-webkit-keyframes animate-svg-fill-18 {
  0% {
    fill: transparent;
  }

  100% {
    fill: rgb(180, 168, 144);
  }
}

@keyframes animate-svg-fill-18 {
  0% {
    fill: transparent;
  }

  100% {
    fill: rgb(180, 168, 144);
  }
}

.hoop-elem-18 {
  -webkit-animation: animate-svg-fill-18 0.2s linear 1.9000000000000001s both;
          animation: animate-svg-fill-18 0.2s linear 1.9000000000000001s both;
}

@-webkit-keyframes animate-svg-fill-19 {
  0% {
    fill: transparent;
  }

  100% {
    fill: rgb(180, 168, 144);
  }
}

@keyframes animate-svg-fill-19 {
  0% {
    fill: transparent;
  }

  100% {
    fill: rgb(180, 168, 144);
  }
}

.hoop-elem-19 {
  -webkit-animation: animate-svg-fill-19 0.2s linear 2s both;
          animation: animate-svg-fill-19 0.2s linear 2s both;
}

@-webkit-keyframes animate-svg-fill-20 {
  0% {
    fill: transparent;
  }

  100% {
    fill: rgb(180, 168, 144);
  }
}

@keyframes animate-svg-fill-20 {
  0% {
    fill: transparent;
  }

  100% {
    fill: rgb(180, 168, 144);
  }
}

.hoop-elem-20 {
  -webkit-animation: animate-svg-fill-20 0.2s linear 2.1s both;
          animation: animate-svg-fill-20 0.2s linear 2.1s both;
}

@-webkit-keyframes animate-svg-fill-21 {
  0% {
    fill: transparent;
  }

  100% {
    fill: rgb(255, 255, 255);
  }
}

@keyframes animate-svg-fill-21 {
  0% {
    fill: transparent;
  }

  100% {
    fill: rgb(255, 255, 255);
  }
}

.hoop-elem-21 {
  -webkit-animation: animate-svg-fill-21 0.2s linear 2.2s both;
          animation: animate-svg-fill-21 0.2s linear 2.2s both;
}

</style>
<g id="ITM_4CP_Hoop 1" clip-path="url(#clip0_205_739)">
<path id="Vector" d="M75.42 1.44C74.2 1.66 72.98 1.9 71.78 2.16C70.97 2.34 70.4 3.06 70.4 3.89V7.55C70.4 8.68 71.45 9.52 72.55 9.27C73.71 9.01 74.87 8.77 76.05 8.55C76.89 8.39 77.51 7.67 77.51 6.81V3.18C77.51 2.07 76.51 1.25 75.42 1.44Z" fill="#DA5225" class="hoop-elem-1 hoo-elem-1"></path>
<path id="Vector_2" d="M102.04 5.31V2.57C102.04 1.43 101.17 0.49 100.04 0.39C97.27 0.13 94.48 0 91.66 0C89.25 0 86.87 0.1 84.51 0.28C83.36 0.37 82.47 1.32 82.47 2.47V5.21C82.47 6.49 83.56 7.49 84.84 7.39C87.09 7.21 89.36 7.11 91.65 7.11C94.35 7.11 97.01 7.24 99.64 7.49C100.93 7.6 102.04 6.59 102.04 5.31Z" fill="#DA5225" class="hoop-elem-2 hoo-elem-2"></path>
<path id="Vector_3" d="M112.68 2.43C111.4 2.13 110.11 1.86 108.81 1.61C107.87 1.43 107 2.14 107 3.09V7.24C107 7.97 107.52 8.58 108.23 8.72C109.49 8.97 110.74 9.25 111.98 9.55C112.93 9.78 113.84 9.06 113.84 8.08V3.9C113.84 3.2 113.36 2.59 112.68 2.43Z" fill="#DA5225" class="hoop-elem-3 hoo-elem-3"></path>
<path id="Vector_4" d="M172.72 48.51C172.21 47.56 171.69 46.63 171.16 45.7C170.72 44.95 169.81 44.6 168.98 44.86L165.69 45.87C164.53 46.23 164.01 47.58 164.63 48.62C165.15 49.5 165.66 50.39 166.15 51.29C166.58 52.08 167.5 52.47 168.37 52.2L171.63 51.19C172.75 50.86 173.28 49.56 172.72 48.51Z" fill="#610000" class="hoop-elem-4 hoo-elem-4"></path>
<path id="Vector_5" d="M181.39 71.75C180.24 66.63 178.67 61.68 176.71 56.92C176.28 55.87 175.13 55.32 174.05 55.65L171.4 56.47C170.17 56.85 169.54 58.2 170.04 59.39C171.93 63.92 173.43 68.64 174.51 73.53C174.79 74.77 176.06 75.51 177.27 75.14L179.91 74.33C181 73.98 181.64 72.86 181.39 71.75Z" fill="#610000" class="hoop-elem-5 hoo-elem-5"></path>
<path id="Vector_6" d="M183.31 84.38C183.21 83.21 183.1 82.04 182.96 80.87C182.82 79.71 181.67 78.96 180.56 79.3L177.28 80.31C176.42 80.58 175.88 81.42 175.98 82.31C176.1 83.42 176.21 84.55 176.29 85.67C176.38 86.86 177.55 87.66 178.69 87.31L182 86.3C182.83 86.04 183.38 85.24 183.31 84.38Z" fill="#610000" class="hoop-elem-6 hoo-elem-6"></path>
<path id="Vector_7" d="M158.54 155.09C159.29 154.29 160.03 153.48 160.76 152.66C161.32 152.02 161.36 151.07 160.86 150.37L158.8 147.52C158.11 146.56 156.69 146.49 155.92 147.39C155.23 148.19 154.53 148.97 153.81 149.74C153.21 150.39 153.14 151.36 153.65 152.08L155.69 154.91C156.38 155.85 157.74 155.94 158.54 155.09Z" fill="#605E43" class="hoop-elem-7 hoo-elem-7"></path>
<path id="Vector_8" d="M139.32 170.63C143.75 167.94 147.94 164.88 151.84 161.5C152.71 160.75 152.87 159.47 152.2 158.54L150.6 156.32C149.84 155.27 148.35 155.1 147.38 155.95C143.67 159.19 139.67 162.11 135.43 164.67C134.33 165.33 134.03 166.79 134.78 167.83L136.38 170.04C137.06 170.99 138.34 171.23 139.32 170.63Z" fill="#605E43" class="hoop-elem-8 hoo-elem-8"></path>
<path id="Vector_9" d="M128.16 176.4C129.05 176.02 129.93 175.62 130.81 175.21C132.04 174.63 132.45 173.07 131.65 171.97L130.01 169.69C129.4 168.84 128.26 168.56 127.31 169C126.49 169.38 125.66 169.75 124.82 170.11C123.54 170.66 123.09 172.25 123.9 173.38L125.56 175.68C126.15 176.49 127.23 176.81 128.16 176.4Z" fill="#605E43" class="hoop-elem-9 hoo-elem-9"></path>
<path id="Vector_10" d="M53.22 175.55C54.1 175.96 54.99 176.35 55.89 176.73C56.81 177.12 57.89 176.81 58.47 175.99L60.14 173.67C60.96 172.54 60.5 170.94 59.21 170.41C58.36 170.06 57.52 169.69 56.69 169.32C55.74 168.89 54.63 169.17 54.02 170.02L52.37 172.31C51.57 173.41 51.98 174.97 53.22 175.55Z" fill="#456D90" class="hoop-elem-10 hoo-elem-10"></path>
<path id="Vector_11" d="M31.98 161.94C35.95 165.33 40.21 168.4 44.73 171.08C45.68 171.64 46.9 171.4 47.55 170.5L49.23 168.17C49.96 167.16 49.66 165.74 48.59 165.1C44.28 162.56 40.21 159.64 36.43 156.4C35.49 155.59 34.06 155.76 33.33 156.77L31.65 159.09C31.01 159.99 31.15 161.23 31.98 161.94Z" fill="#456D90" class="hoop-elem-11 hoo-elem-11"></path>
<path id="Vector_12" d="M23.21 153.38C23.84 154.08 24.48 154.78 25.14 155.46C26.03 156.4 27.56 156.29 28.32 155.24L30.09 152.79C30.67 151.98 30.59 150.88 29.9 150.15C29.29 149.5 28.69 148.84 28.09 148.17C27.21 147.18 25.64 147.25 24.87 148.33L23.09 150.8C22.52 151.59 22.56 152.67 23.21 153.38Z" fill="#456D90" class="hoop-elem-12 hoo-elem-12"></path>
<path id="Vector_13" d="M0.29 81.37C0.18 82.31 0.0899997 83.26 0.0099997 84.21C-0.0800003 85.23 0.57 86.17 1.55 86.47L4.21 87.29C5.56 87.71 6.94 86.76 7.04 85.36C7.11 84.46 7.19 83.56 7.29 82.67C7.41 81.62 6.74 80.64 5.74 80.33L3.12 79.52C1.81 79.12 0.45 80 0.29 81.37Z" fill="#E0AC0F" class="hoop-elem-13 hoo-elem-13"></path>
<path id="Vector_14" d="M6.56 57.05C4.61 61.78 3.05 66.71 1.91 71.8C1.66 72.94 2.31 74.08 3.42 74.42L5.98 75.21C7.22 75.59 8.52 74.83 8.8 73.57C9.87 68.72 11.37 64.02 13.23 59.52C13.73 58.31 13.09 56.93 11.84 56.55L9.28 55.76C8.17 55.41 7 55.98 6.56 57.05Z" fill="#E0AC0F" class="hoop-elem-14 hoo-elem-14"></path>
<path id="Vector_15" d="M12.05 45.9C11.57 46.73 11.09 47.58 10.64 48.43C10.03 49.56 10.61 50.97 11.84 51.35L14.79 52.26C15.72 52.55 16.72 52.13 17.19 51.27C17.63 50.47 18.08 49.68 18.55 48.89C19.22 47.75 18.66 46.29 17.4 45.9L14.42 44.98C13.51 44.71 12.53 45.08 12.05 45.9Z" fill="#E0AC0F" class="hoop-elem-15 hoo-elem-15"></path>
<path id="Vector_16" d="M18.36 41.01C18.36 41.01 20.54 42.29 22.05 40.3C41.01 15.4 47.78 17.3 64.04 11.7C64.64 11.49 65.85 11.05 66.47 10.49C66.78 10.21 66.82 9.73 66.59 9.38L65.16 7.15C64.36 6.08 61.92 6.56 60.91 6.89C42.49 13 29.96 20.9 20.62 35.37C18.79 38.2 16.24 40.57 18.36 41.01Z" fill="#B4A890" class="hoop-elem-16 hoo-elem-16"></path>
<path id="Vector_17" d="M118.58 7.05C118.58 7.05 118.01 10.02 120.5 10.29C135.05 11.83 150.84 26.73 161.61 40.15C162.01 40.65 162.83 41.63 163.57 42.03C163.94 42.23 164.61 42.27 164.86 41.94L166.91 40.72C167.46 40.33 167.7 39.62 167.47 38.98C167 37.69 163.56 34.74 162.99 34.24C154.14 26.46 148.01 15.38 124.17 7.03C120.97 5.91 118.28 4.91 118.58 7.05Z" fill="#B4A890" class="hoop-elem-17 hoo-elem-17"></path>
<path id="Vector_18" d="M2.06 90.49C2.06 90.49 5.16 90.81 4.61 93.25C0.84 109.9 11.68 127.03 21.46 141.18C21.82 141.7 22.53 142.77 22.7 143.59C22.78 144 22.63 144.65 22.24 144.8L20.49 146.41C19.96 146.82 19.21 146.85 18.66 146.45C17.56 145.63 16.4 143.87 16.09 143.18C11.17 132.47 1.62 121.05 0.44 95.82C0.28 92.46 0.0999997 89.59 2.06 90.49Z" fill="#B4A890" class="hoop-elem-18 hoo-elem-18"></path>
<path id="Vector_19" d="M62.48 176.58C62.48 176.58 63.46 174.44 65.9 175.01C96.22 182.05 100.62 179.55 116.69 173.82C117.29 173.61 118.53 173.29 119.37 173.39C119.79 173.44 120.09 173.8 120.12 174.22L121.14 176.76C121.37 177.33 121.18 178 120.67 178.33C119.62 179.01 117.67 179.33 116.94 179.55C98.41 185.32 87.75 184.88 75.02 182.88C71.68 182.35 61.01 178.17 62.48 176.58Z" fill="#B4A890" class="hoop-elem-19 hoo-elem-19"></path>
<path id="Vector_20" d="M181.71 90.37C181.71 90.37 179.55 90.66 179.16 93.13C172.18 136.91 172.09 126.91 162.31 141.06C161.95 141.58 161.24 142.65 161.07 143.47C160.99 143.88 161.14 144.53 161.53 144.68L163.28 146.29C163.81 146.7 164.56 146.73 165.11 146.33C166.21 145.51 167.37 143.75 167.68 143.06C172.6 132.35 182.15 120.93 183.33 95.7C183.48 92.34 183.67 89.47 181.71 90.37Z" fill="#B4A890" class="hoop-elem-20 hoo-elem-20"></path>
</g>
<defs>
<clipPath id="clip0_205_739">
<rect width="183.42" height="184.23" fill="white" class="hoop-elem-21 hoo-elem-21"></rect>
</clipPath>
</defs>
</svg>
